<svg width="168" height="54" viewBox="0 0 168 54" fill="none" xmlns="http://www.w3.org/2000/svg">
<rect width="168" height="54" rx="10" fill="white"/>
<g clip-path="url(#clip0_5_5)">
<path d="M36.773 15.012C36.722 14.955 34.8845 15.0345 33.2855 16.77C31.6865 18.504 31.9325 20.493 31.9685 20.544C32.0045 20.595 34.2485 20.6745 35.681 18.657C37.1135 16.6395 36.824 15.0705 36.773 15.012ZM41.744 32.6115C41.672 32.4675 38.2565 30.7605 38.5745 27.4785C38.8925 24.195 41.087 23.295 41.1215 23.1975C41.156 23.1 40.226 22.0125 39.2405 21.462C38.5169 21.0739 37.7161 20.8515 36.896 20.811C36.734 20.8065 36.1715 20.6685 35.015 20.985C34.253 21.1935 32.5355 21.8685 32.063 21.8955C31.589 21.9225 30.179 21.1125 28.6625 20.898C27.692 20.7105 26.663 21.0945 25.9265 21.39C25.1915 21.684 23.7935 22.521 22.8155 24.7455C21.8375 26.9685 22.349 30.4905 22.715 31.5855C23.081 32.679 23.6525 34.4715 24.6245 35.7795C25.4885 37.2555 26.6345 38.28 27.113 38.628C27.5915 38.976 28.9415 39.207 29.8775 38.7285C30.6305 38.2665 31.9895 38.001 32.5265 38.0205C33.062 38.04 34.118 38.2515 35.1995 38.829C36.056 39.1245 36.866 39.0015 37.6775 38.6715C38.489 38.34 39.6635 37.083 41.0345 34.5345C41.555 33.3495 41.792 32.709 41.744 32.6115Z" fill="black"/>
<path d="M36.773 15.012C36.722 14.955 34.8845 15.0345 33.2855 16.77C31.6865 18.504 31.9325 20.493 31.9685 20.544C32.0045 20.595 34.2485 20.6745 35.681 18.657C37.1135 16.6395 36.824 15.0705 36.773 15.012ZM41.744 32.6115C41.672 32.4675 38.2565 30.7605 38.5745 27.4785C38.8925 24.195 41.087 23.295 41.1215 23.1975C41.156 23.1 40.226 22.0125 39.2405 21.462C38.5169 21.0739 37.7161 20.8515 36.896 20.811C36.734 20.8065 36.1715 20.6685 35.015 20.985C34.253 21.1935 32.5355 21.8685 32.063 21.8955C31.589 21.9225 30.179 21.1125 28.6625 20.898C27.692 20.7105 26.663 21.0945 25.9265 21.39C25.1915 21.684 23.7935 22.521 22.8155 24.7455C21.8375 26.9685 22.349 30.4905 22.715 31.5855C23.081 32.679 23.6525 34.4715 24.6245 35.7795C25.4885 37.2555 26.6345 38.28 27.113 38.628C27.5915 38.976 28.9415 39.207 29.8775 38.7285C30.6305 38.2665 31.9895 38.001 32.5265 38.0205C33.062 38.04 34.118 38.2515 35.1995 38.829C36.056 39.1245 36.866 39.0015 37.6775 38.6715C38.489 38.34 39.6635 37.083 41.0345 34.5345C41.555 33.3495 41.792 32.709 41.744 32.6115Z" fill="black"/>
</g>
<path d="M59.25 32.168C58.326 32.168 57.5187 31.958 56.828 31.538C56.1373 31.118 55.6007 30.53 55.218 29.774C54.8353 29.018 54.644 28.136 54.644 27.128C54.644 26.1293 54.84 25.2473 55.232 24.482C55.624 23.7167 56.1793 23.1193 56.898 22.69C57.626 22.2513 58.4847 22.032 59.474 22.032C60.594 22.032 61.5273 22.3027 62.274 22.844C63.0207 23.3853 63.506 24.132 63.73 25.084H62.05C61.9007 24.5613 61.6067 24.1507 61.168 23.852C60.7293 23.5533 60.1647 23.404 59.474 23.404C58.4473 23.404 57.64 23.7353 57.052 24.398C56.464 25.0607 56.17 25.9753 56.17 27.142C56.17 28.3087 56.4593 29.2187 57.038 29.872C57.6167 30.5253 58.3867 30.852 59.348 30.852C60.3187 30.852 61.0467 30.5767 61.532 30.026C62.0267 29.4753 62.316 28.7427 62.4 27.828H59.74V26.68H63.898V32H62.54L62.414 30.558C62.0873 31.0713 61.6767 31.468 61.182 31.748C60.6873 32.028 60.0433 32.168 59.25 32.168ZM68.8911 32.168C68.2097 32.168 67.6031 32.0187 67.0711 31.72C66.5484 31.412 66.1377 30.9873 65.8391 30.446C65.5404 29.9047 65.3911 29.2747 65.3911 28.556C65.3911 27.828 65.5357 27.1887 65.8251 26.638C66.1237 26.0873 66.5344 25.658 67.0571 25.35C67.5891 25.042 68.2051 24.888 68.9051 24.888C69.5864 24.888 70.1791 25.042 70.6831 25.35C71.1871 25.6487 71.5791 26.05 71.8591 26.554C72.1391 27.058 72.2791 27.6133 72.2791 28.22C72.2791 28.3133 72.2744 28.416 72.2651 28.528C72.2651 28.6307 72.2604 28.7473 72.2511 28.878H66.8471C66.8937 29.55 67.1131 30.0633 67.5051 30.418C67.9064 30.7633 68.3684 30.936 68.8911 30.936C69.3111 30.936 69.6611 30.8427 69.9411 30.656C70.2304 30.46 70.4451 30.1987 70.5851 29.872H72.0691C71.8824 30.5253 71.5091 31.0713 70.9491 31.51C70.3984 31.9487 69.7124 32.168 68.8911 32.168ZM68.8911 26.106C68.3964 26.106 67.9577 26.2553 67.5751 26.554C67.1924 26.8433 66.9591 27.282 66.8751 27.87H70.7951C70.7671 27.3287 70.5757 26.8993 70.2211 26.582C69.8664 26.2647 69.4231 26.106 68.8911 26.106ZM76.5531 32C75.8718 32 75.3305 31.8367 74.9291 31.51C74.5278 31.174 74.3271 30.5813 74.3271 29.732V26.302H73.1371V25.056H74.3271L74.5091 23.292H75.8111V25.056H77.7711V26.302H75.8111V29.732C75.8111 30.1147 75.8905 30.3807 76.0491 30.53C76.2171 30.67 76.5018 30.74 76.9031 30.74H77.7011V32H76.5531ZM86.0766 32.168C85.414 32.168 84.8166 32.0187 84.2846 31.72C83.762 31.412 83.3466 30.9873 83.0386 30.446C82.7306 29.8953 82.5766 29.256 82.5766 28.528C82.5766 27.8 82.7306 27.1653 83.0386 26.624C83.356 26.0733 83.7806 25.6487 84.3126 25.35C84.8446 25.042 85.4373 24.888 86.0906 24.888C86.7533 24.888 87.346 25.042 87.8686 25.35C88.4006 25.6487 88.8206 26.0733 89.1286 26.624C89.446 27.1653 89.6046 27.8 89.6046 28.528C89.6046 29.256 89.446 29.8953 89.1286 30.446C88.8206 30.9873 88.4006 31.412 87.8686 31.72C87.3366 32.0187 86.7393 32.168 86.0766 32.168ZM86.0766 30.894C86.4313 30.894 86.758 30.8053 87.0566 30.628C87.3646 30.4507 87.612 30.1893 87.7986 29.844C87.9853 29.4893 88.0786 29.0507 88.0786 28.528C88.0786 28.0053 87.9853 27.5713 87.7986 27.226C87.6213 26.8713 87.3786 26.6053 87.0706 26.428C86.772 26.2507 86.4453 26.162 86.0906 26.162C85.736 26.162 85.4046 26.2507 85.0966 26.428C84.798 26.6053 84.5553 26.8713 84.3686 27.226C84.182 27.5713 84.0886 28.0053 84.0886 28.528C84.0886 29.0507 84.182 29.4893 84.3686 29.844C84.5553 30.1893 84.798 30.4507 85.0966 30.628C85.3953 30.8053 85.722 30.894 86.0766 30.894ZM91.2095 32V25.056H92.5255L92.6375 26.274C92.8522 25.8447 93.1648 25.5087 93.5755 25.266C93.9955 25.014 94.4762 24.888 95.0175 24.888C95.8575 24.888 96.5155 25.1493 96.9915 25.672C97.4768 26.1947 97.7195 26.974 97.7195 28.01V32H96.2495V28.164C96.2495 26.82 95.6988 26.148 94.5975 26.148C94.0468 26.148 93.5895 26.344 93.2255 26.736C92.8708 27.128 92.6935 27.688 92.6935 28.416V32H91.2095ZM103.835 23.74C103.555 23.74 103.321 23.656 103.135 23.488C102.957 23.3107 102.869 23.0913 102.869 22.83C102.869 22.5687 102.957 22.354 103.135 22.186C103.321 22.0087 103.555 21.92 103.835 21.92C104.115 21.92 104.343 22.0087 104.521 22.186C104.707 22.354 104.801 22.5687 104.801 22.83C104.801 23.0913 104.707 23.3107 104.521 23.488C104.343 23.656 104.115 23.74 103.835 23.74ZM103.093 32V25.056H104.577V32H103.093ZM106.536 35.08V25.056H107.866L108.02 26.134C108.244 25.8073 108.552 25.518 108.944 25.266C109.336 25.014 109.84 24.888 110.456 24.888C111.128 24.888 111.72 25.0467 112.234 25.364C112.747 25.6813 113.148 26.1153 113.438 26.666C113.736 27.2167 113.886 27.842 113.886 28.542C113.886 29.242 113.736 29.8673 113.438 30.418C113.148 30.9593 112.747 31.3887 112.234 31.706C111.72 32.014 111.123 32.168 110.442 32.168C109.9 32.168 109.42 32.0607 109 31.846C108.589 31.6313 108.262 31.328 108.02 30.936V35.08H106.536ZM110.19 30.88C110.824 30.88 111.347 30.6653 111.758 30.236C112.168 29.7973 112.374 29.228 112.374 28.528C112.374 28.0707 112.28 27.6647 112.094 27.31C111.907 26.9553 111.65 26.68 111.324 26.484C110.997 26.2787 110.619 26.176 110.19 26.176C109.555 26.176 109.032 26.3953 108.622 26.834C108.22 27.2727 108.02 27.8373 108.02 28.528C108.02 29.228 108.22 29.7973 108.622 30.236C109.032 30.6653 109.555 30.88 110.19 30.88ZM115.491 32V21.92H116.975V26.176C117.208 25.7747 117.53 25.462 117.941 25.238C118.361 25.0047 118.823 24.888 119.327 24.888C120.157 24.888 120.811 25.1493 121.287 25.672C121.763 26.1947 122.001 26.974 122.001 28.01V32H120.531V28.164C120.531 26.82 119.994 26.148 118.921 26.148C118.361 26.148 117.894 26.344 117.521 26.736C117.157 27.128 116.975 27.688 116.975 28.416V32H115.491ZM126.997 32.168C126.334 32.168 125.737 32.0187 125.205 31.72C124.682 31.412 124.267 30.9873 123.959 30.446C123.651 29.8953 123.497 29.256 123.497 28.528C123.497 27.8 123.651 27.1653 123.959 26.624C124.276 26.0733 124.701 25.6487 125.233 25.35C125.765 25.042 126.357 24.888 127.011 24.888C127.673 24.888 128.266 25.042 128.789 25.35C129.321 25.6487 129.741 26.0733 130.049 26.624C130.366 27.1653 130.525 27.8 130.525 28.528C130.525 29.256 130.366 29.8953 130.049 30.446C129.741 30.9873 129.321 31.412 128.789 31.72C128.257 32.0187 127.659 32.168 126.997 32.168ZM126.997 30.894C127.351 30.894 127.678 30.8053 127.977 30.628C128.285 30.4507 128.532 30.1893 128.719 29.844C128.905 29.4893 128.999 29.0507 128.999 28.528C128.999 28.0053 128.905 27.5713 128.719 27.226C128.541 26.8713 128.299 26.6053 127.991 26.428C127.692 26.2507 127.365 26.162 127.011 26.162C126.656 26.162 126.325 26.2507 126.017 26.428C125.718 26.6053 125.475 26.8713 125.289 27.226C125.102 27.5713 125.009 28.0053 125.009 28.528C125.009 29.0507 125.102 29.4893 125.289 29.844C125.475 30.1893 125.718 30.4507 126.017 30.628C126.315 30.8053 126.642 30.894 126.997 30.894ZM132.129 32V25.056H133.445L133.557 26.274C133.772 25.8447 134.085 25.5087 134.495 25.266C134.915 25.014 135.396 24.888 135.937 24.888C136.777 24.888 137.435 25.1493 137.911 25.672C138.397 26.1947 138.639 26.974 138.639 28.01V32H137.169V28.164C137.169 26.82 136.619 26.148 135.517 26.148C134.967 26.148 134.509 26.344 134.145 26.736C133.791 27.128 133.613 27.688 133.613 28.416V32H132.129ZM143.635 32.168C142.954 32.168 142.347 32.0187 141.815 31.72C141.293 31.412 140.882 30.9873 140.583 30.446C140.285 29.9047 140.135 29.2747 140.135 28.556C140.135 27.828 140.28 27.1887 140.569 26.638C140.868 26.0873 141.279 25.658 141.801 25.35C142.333 25.042 142.949 24.888 143.649 24.888C144.331 24.888 144.923 25.042 145.427 25.35C145.931 25.6487 146.323 26.05 146.603 26.554C146.883 27.058 147.023 27.6133 147.023 28.22C147.023 28.3133 147.019 28.416 147.009 28.528C147.009 28.6307 147.005 28.7473 146.995 28.878H141.591C141.638 29.55 141.857 30.0633 142.249 30.418C142.651 30.7633 143.113 30.936 143.635 30.936C144.055 30.936 144.405 30.8427 144.685 30.656C144.975 30.46 145.189 30.1987 145.329 29.872H146.813C146.627 30.5253 146.253 31.0713 145.693 31.51C145.143 31.9487 144.457 32.168 143.635 32.168ZM143.635 26.106C143.141 26.106 142.702 26.2553 142.319 26.554C141.937 26.8433 141.703 27.282 141.619 27.87H145.539C145.511 27.3287 145.32 26.8993 144.965 26.582C144.611 26.2647 144.167 26.106 143.635 26.106Z" fill="#0C1825"/>
<rect x="0.5" y="0.5" width="167" height="53" rx="9.5" stroke="#0C1825" stroke-opacity="0.5"/>
<defs>
<clipPath id="clip0_5_5">
<rect width="24" height="24" fill="white" transform="translate(20 15)"/>
</clipPath>
</defs>
</svg>
