<svg width="50" height="50" viewBox="0 0 50 50" fill="none" xmlns="http://www.w3.org/2000/svg">
<path d="M0 15C0 6.71573 6.71573 0 15 0H35C43.2843 0 50 6.71573 50 15V35C50 43.2843 43.2843 50 35 50H0V15Z" fill="#33B307" fill-opacity="0.15"/>
<path d="M25 37C18.3724 37 13 31.6276 13 25C13 18.3724 18.3724 13 25 13C31.6276 13 37 18.3724 37 25C37 31.6276 31.6276 37 25 37ZM25 34.6C27.5461 34.6 29.9879 33.5886 31.7882 31.7882C33.5886 29.9879 34.6 27.5461 34.6 25C34.6 22.4539 33.5886 20.0121 31.7882 18.2118C29.9879 16.4114 27.5461 15.4 25 15.4C22.4539 15.4 20.0121 16.4114 18.2118 18.2118C16.4114 20.0121 15.4 22.4539 15.4 25C15.4 27.5461 16.4114 29.9879 18.2118 31.7882C20.0121 33.5886 22.4539 34.6 25 34.6ZM25 33.4C23.8969 33.4 22.8046 33.1827 21.7855 32.7606C20.7663 32.3384 19.8403 31.7197 19.0603 30.9397C18.2803 30.1597 17.6616 29.2337 17.2394 28.2145C16.8173 27.1954 16.6 26.1031 16.6 25C16.6 23.8969 16.8173 22.8046 17.2394 21.7855C17.6616 20.7663 18.2803 19.8403 19.0603 19.0603C19.8403 18.2803 20.7663 17.6616 21.7855 17.2394C22.8046 16.8173 23.8969 16.6 25 16.6C27.2278 16.6 29.3644 17.485 30.9397 19.0603C32.515 20.6356 33.4 22.7722 33.4 25C33.4 27.2278 32.515 29.3644 30.9397 30.9397C29.3644 32.515 27.2278 33.4 25 33.4ZM25 31C26.5913 31 28.1174 30.3679 29.2426 29.2426C30.3679 28.1174 31 26.5913 31 25C31 23.4087 30.3679 21.8826 29.2426 20.7574C28.1174 19.6321 26.5913 19 25 19C23.4087 19 21.8826 19.6321 20.7574 20.7574C19.6321 21.8826 19 23.4087 19 25C19 26.5913 19.6321 28.1174 20.7574 29.2426C21.8826 30.3679 23.4087 31 25 31ZM25 29.8C23.727 29.8 22.5061 29.2943 21.6059 28.3941C20.7057 27.4939 20.2 26.273 20.2 25C20.2 23.727 20.7057 22.5061 21.6059 21.6059C22.5061 20.7057 23.727 20.2 25 20.2C26.273 20.2 27.4939 20.7057 28.3941 21.6059C29.2943 22.5061 29.8 23.727 29.8 25C29.8 26.273 29.2943 27.4939 28.3941 28.3941C27.4939 29.2943 26.273 29.8 25 29.8ZM25 27.4C25.6365 27.4 26.247 27.1471 26.6971 26.6971C27.1471 26.247 27.4 25.6365 27.4 25C27.4 24.3635 27.1471 23.753 26.6971 23.3029C26.247 22.8529 25.6365 22.6 25 22.6C24.3635 22.6 23.753 22.8529 23.3029 23.3029C22.8529 23.753 22.6 24.3635 22.6 25C22.6 25.6365 22.8529 26.247 23.3029 26.6971C23.753 27.1471 24.3635 27.4 25 27.4ZM25 26.2C24.6817 26.2 24.3765 26.0736 24.1515 25.8485C23.9264 25.6235 23.8 25.3183 23.8 25C23.8 24.6817 23.9264 24.3765 24.1515 24.1515C24.3765 23.9264 24.6817 23.8 25 23.8C25.3183 23.8 25.6235 23.9264 25.8485 24.1515C26.0736 24.3765 26.2 24.6817 26.2 25C26.2 25.3183 26.0736 25.6235 25.8485 25.8485C25.6235 26.0736 25.3183 26.2 25 26.2Z" fill="#33B307"/>
</svg>
