<svg width="101" height="13" viewBox="0 0 101 13" fill="none" xmlns="http://www.w3.org/2000/svg">
<path d="M0.122 12V0.449999H2.234V10.35H7.349V12H0.122ZM12.7663 12.198C11.9413 12.198 11.2098 12.022 10.5718 11.67C9.93379 11.318 9.43329 10.823 9.07029 10.185C8.70729 9.547 8.52579 8.81 8.52579 7.974C8.52579 7.127 8.70179 6.3735 9.05379 5.7135C9.41679 5.0535 9.91179 4.542 10.5388 4.179C11.1768 3.805 11.9248 3.618 12.7828 3.618C13.5858 3.618 14.2953 3.794 14.9113 4.146C15.5273 4.498 16.0058 4.982 16.3468 5.598C16.6988 6.203 16.8748 6.8795 16.8748 7.6275C16.8748 7.7485 16.8693 7.875 16.8583 8.007C16.8583 8.139 16.8528 8.2765 16.8418 8.4195H10.6213C10.6653 9.0575 10.8853 9.558 11.2813 9.921C11.6883 10.284 12.1778 10.4655 12.7498 10.4655C13.1788 10.4655 13.5363 10.372 13.8223 10.185C14.1193 9.987 14.3393 9.734 14.4823 9.426H16.6273C16.4733 9.943 16.2148 10.416 15.8518 10.845C15.4998 11.263 15.0598 11.593 14.5318 11.835C14.0148 12.077 13.4263 12.198 12.7663 12.198ZM12.7828 5.334C12.2658 5.334 11.8093 5.4825 11.4133 5.7795C11.0173 6.0655 10.7643 6.5055 10.6543 7.0995H14.7298C14.6968 6.5605 14.4988 6.1315 14.1358 5.8125C13.7728 5.4935 13.3218 5.334 12.7828 5.334ZM21.4726 12.198C20.7686 12.198 20.1911 12.088 19.7401 11.868C19.2891 11.637 18.9536 11.3345 18.7336 10.9605C18.5136 10.5865 18.4036 10.174 18.4036 9.723C18.4036 8.964 18.7006 8.348 19.2946 7.875C19.8886 7.402 20.7796 7.1655 21.9676 7.1655H24.0466V6.9675C24.0466 6.4065 23.8871 5.994 23.5681 5.73C23.2491 5.466 22.8531 5.334 22.3801 5.334C21.9511 5.334 21.5771 5.4385 21.2581 5.6475C20.9391 5.8455 20.7411 6.1425 20.6641 6.5385H18.6016C18.6566 5.9445 18.8546 5.4275 19.1956 4.9875C19.5476 4.5475 19.9986 4.212 20.5486 3.981C21.0986 3.739 21.7146 3.618 22.3966 3.618C23.5626 3.618 24.4811 3.9095 25.1521 4.4925C25.8231 5.0755 26.1586 5.9005 26.1586 6.9675V12H24.3601L24.1621 10.68C23.9201 11.12 23.5791 11.483 23.1391 11.769C22.7101 12.055 22.1546 12.198 21.4726 12.198ZM21.9511 10.548C22.5561 10.548 23.0236 10.35 23.3536 9.954C23.6946 9.558 23.9091 9.0685 23.9971 8.4855H22.1986C21.6376 8.4855 21.2361 8.59 20.9941 8.799C20.7521 8.997 20.6311 9.2445 20.6311 9.5415C20.6311 9.8605 20.7521 10.108 20.9941 10.284C21.2361 10.46 21.5551 10.548 21.9511 10.548ZM28.1741 12V3.816H30.0551L30.2531 5.3505C30.5501 4.8225 30.9516 4.4045 31.4576 4.0965C31.9746 3.7775 32.5796 3.618 33.2726 3.618V5.8455H32.6786C32.2166 5.8455 31.8041 5.917 31.4411 6.06C31.0781 6.203 30.7921 6.4505 30.5831 6.8025C30.3851 7.1545 30.2861 7.644 30.2861 8.271V12H28.1741ZM34.7161 12V3.816H36.5806L36.7456 5.202C36.9986 4.718 37.3616 4.333 37.8346 4.047C38.3186 3.761 38.8851 3.618 39.5341 3.618C40.5461 3.618 41.3326 3.937 41.8936 4.575C42.4546 5.213 42.7351 6.148 42.7351 7.38V12H40.6231V7.578C40.6231 6.874 40.4801 6.335 40.1941 5.961C39.9081 5.587 39.4626 5.4 38.8576 5.4C38.2636 5.4 37.7741 5.609 37.3891 6.027C37.0151 6.445 36.8281 7.028 36.8281 7.776V12H34.7161ZM48.6863 12V3.816H50.5508L50.7323 4.9215C50.9963 4.5255 51.3428 4.212 51.7718 3.981C52.2118 3.739 52.7178 3.618 53.2898 3.618C54.5548 3.618 55.4513 4.1075 55.9793 5.0865C56.2763 4.6355 56.6723 4.278 57.1673 4.014C57.6733 3.75 58.2233 3.618 58.8173 3.618C59.8843 3.618 60.7038 3.937 61.2758 4.575C61.8478 5.213 62.1338 6.148 62.1338 7.38V12H60.0218V7.578C60.0218 6.874 59.8843 6.335 59.6093 5.961C59.3453 5.587 58.9328 5.4 58.3718 5.4C57.7998 5.4 57.3378 5.609 56.9858 6.027C56.6448 6.445 56.4743 7.028 56.4743 7.776V12H54.3623V7.578C54.3623 6.874 54.2248 6.335 53.9498 5.961C53.6748 5.587 53.2513 5.4 52.6793 5.4C52.1183 5.4 51.6618 5.609 51.3098 6.027C50.9688 6.445 50.7983 7.028 50.7983 7.776V12H48.6863ZM68.0659 12.198C67.2739 12.198 66.5589 12.0165 65.9209 11.6535C65.2939 11.2905 64.7934 10.79 64.4194 10.152C64.0564 9.503 63.8749 8.755 63.8749 7.908C63.8749 7.061 64.0619 6.3185 64.4359 5.6805C64.8099 5.0315 65.3104 4.5255 65.9374 4.1625C66.5754 3.7995 67.2904 3.618 68.0824 3.618C68.8634 3.618 69.5674 3.7995 70.1944 4.1625C70.8324 4.5255 71.3329 5.0315 71.6959 5.6805C72.0699 6.3185 72.2569 7.061 72.2569 7.908C72.2569 8.755 72.0699 9.503 71.6959 10.152C71.3329 10.79 70.8324 11.2905 70.1944 11.6535C69.5564 12.0165 68.8469 12.198 68.0659 12.198ZM68.0659 10.3665C68.6159 10.3665 69.0944 10.163 69.5014 9.756C69.9084 9.338 70.1119 8.722 70.1119 7.908C70.1119 7.094 69.9084 6.4835 69.5014 6.0765C69.0944 5.6585 68.6214 5.4495 68.0824 5.4495C67.5214 5.4495 67.0374 5.6585 66.6304 6.0765C66.2344 6.4835 66.0364 7.094 66.0364 7.908C66.0364 8.722 66.2344 9.338 66.6304 9.756C67.0374 10.163 67.5159 10.3665 68.0659 10.3665ZM74.1453 12V3.816H76.0263L76.2243 5.3505C76.5213 4.8225 76.9228 4.4045 77.4288 4.0965C77.9458 3.7775 78.5508 3.618 79.2438 3.618V5.8455H78.6498C78.1878 5.8455 77.7753 5.917 77.4123 6.06C77.0493 6.203 76.7633 6.4505 76.5543 6.8025C76.3563 7.1545 76.2573 7.644 76.2573 8.271V12H74.1453ZM84.5187 12.198C83.6937 12.198 82.9622 12.022 82.3242 11.67C81.6862 11.318 81.1857 10.823 80.8227 10.185C80.4597 9.547 80.2782 8.81 80.2782 7.974C80.2782 7.127 80.4542 6.3735 80.8062 5.7135C81.1692 5.0535 81.6642 4.542 82.2912 4.179C82.9292 3.805 83.6772 3.618 84.5352 3.618C85.3382 3.618 86.0477 3.794 86.6637 4.146C87.2797 4.498 87.7582 4.982 88.0992 5.598C88.4512 6.203 88.6272 6.8795 88.6272 7.6275C88.6272 7.7485 88.6217 7.875 88.6107 8.007C88.6107 8.139 88.6052 8.2765 88.5942 8.4195H82.3737C82.4177 9.0575 82.6377 9.558 83.0337 9.921C83.4407 10.284 83.9302 10.4655 84.5022 10.4655C84.9312 10.4655 85.2887 10.372 85.5747 10.185C85.8717 9.987 86.0917 9.734 86.2347 9.426H88.3797C88.2257 9.943 87.9672 10.416 87.6042 10.845C87.2522 11.263 86.8122 11.593 86.2842 11.835C85.7672 12.077 85.1787 12.198 84.5187 12.198ZM84.5352 5.334C84.0182 5.334 83.5617 5.4825 83.1657 5.7795C82.7697 6.0655 82.5167 6.5055 82.4067 7.0995H86.4822C86.4492 6.5605 86.2512 6.1315 85.8882 5.8125C85.5252 5.4935 85.0742 5.334 84.5352 5.334ZM94.4177 9.8055L98.1137 6.0765L94.4177 2.364H97.0742L100.77 6.0765L97.0742 9.8055H94.4177Z" fill="#0051EE"/>
</svg>
