<svg width="50" height="50" viewBox="0 0 50 50" fill="none" xmlns="http://www.w3.org/2000/svg">
<path d="M0 15C0 6.71573 6.71573 0 15 0H35C43.2843 0 50 6.71573 50 15V35C50 43.2843 43.2843 50 35 50H0V15Z" fill="#00C2FF" fill-opacity="0.15"/>
<path d="M25 26.4C24.5433 26.395 24.096 26.5207 23.7182 26.7602C23.3404 26.9997 23.0502 27.3415 22.8868 27.7395C22.7234 28.1376 22.6946 28.5728 22.8042 28.9866C22.9139 29.4004 23.1567 29.7729 23.5 30.054V32C23.5 32.3713 23.658 32.7274 23.9393 32.99C24.2206 33.2525 24.6022 33.4 25 33.4C25.3978 33.4 25.7794 33.2525 26.0607 32.99C26.342 32.7274 26.5 32.3713 26.5 32V30.054C26.8433 29.7729 27.0861 29.4004 27.1958 28.9866C27.3054 28.5728 27.2766 28.1376 27.1132 27.7395C26.9498 27.3415 26.6596 26.9997 26.2818 26.7602C25.904 26.5207 25.4567 26.395 25 26.4ZM32.5 20.8V18C32.5 16.1435 31.7098 14.363 30.3033 13.0503C28.8968 11.7375 26.9891 11 25 11C23.0109 11 21.1032 11.7375 19.6967 13.0503C18.2902 14.363 17.5 16.1435 17.5 18V20.8C16.3065 20.8 15.1619 21.2425 14.318 22.0302C13.4741 22.8178 13 23.8861 13 25V34.8C13 35.9139 13.4741 36.9822 14.318 37.7698C15.1619 38.5575 16.3065 39 17.5 39H32.5C33.6935 39 34.8381 38.5575 35.682 37.7698C36.5259 36.9822 37 35.9139 37 34.8V25C37 23.8861 36.5259 22.8178 35.682 22.0302C34.8381 21.2425 33.6935 20.8 32.5 20.8ZM20.5 18C20.5 16.8861 20.9741 15.8178 21.818 15.0302C22.6619 14.2425 23.8065 13.8 25 13.8C26.1935 13.8 27.3381 14.2425 28.182 15.0302C29.0259 15.8178 29.5 16.8861 29.5 18V20.8H20.5V18ZM34 34.8C34 35.1713 33.842 35.5274 33.5607 35.7899C33.2794 36.0525 32.8978 36.2 32.5 36.2H17.5C17.1022 36.2 16.7206 36.0525 16.4393 35.7899C16.158 35.5274 16 35.1713 16 34.8V25C16 24.6287 16.158 24.2726 16.4393 24.0101C16.7206 23.7475 17.1022 23.6 17.5 23.6H32.5C32.8978 23.6 33.2794 23.7475 33.5607 24.0101C33.842 24.2726 34 24.6287 34 25V34.8Z" fill="#00C2FF"/>
</svg>
