<svg width="171" height="51" viewBox="0 0 171 51" fill="none" xmlns="http://www.w3.org/2000/svg">
<rect width="170.5" height="51.0003" rx="10" fill="white"/>
<path d="M20 16.2887V34.7106C20.0001 34.7506 20.012 34.7896 20.0343 34.8228C20.0565 34.8561 20.088 34.882 20.1249 34.8973C20.1618 34.9127 20.2024 34.9168 20.2417 34.9092C20.2809 34.9016 20.317 34.8826 20.3455 34.8545L29.9375 25.5001L20.3455 16.1448C20.317 16.1168 20.2809 16.0977 20.2417 16.0901C20.2024 16.0825 20.1618 16.0866 20.1249 16.102C20.088 16.1174 20.0565 16.1433 20.0343 16.1765C20.012 16.2097 20.0001 16.2488 20 16.2887ZM33.9594 21.6564L21.9322 15.0301L21.9247 15.0259C21.7175 14.9134 21.5206 15.1937 21.6903 15.3569L31.1183 24.3719L33.9594 21.6564ZM21.6912 35.6434C21.5206 35.8065 21.7175 36.0869 21.9256 35.9744L21.9331 35.9701L33.9594 29.3439L31.1183 26.6275L21.6912 35.6434ZM38.8147 24.3283L35.4561 22.4786L32.2981 25.5001L35.4561 28.5203L38.8147 26.672C39.7283 26.1672 39.7283 24.8331 38.8147 24.3283Z" fill="black"/>
<path d="M54.7499 30.6681C53.8259 30.6681 53.0185 30.4581 52.3279 30.0381C51.6372 29.6181 51.1005 29.0301 50.7179 28.2741C50.3352 27.5181 50.1439 26.6361 50.1439 25.6281C50.1439 24.6295 50.3399 23.7475 50.7319 22.9821C51.1239 22.2168 51.6792 21.6195 52.3979 21.1901C53.1259 20.7515 53.9845 20.5321 54.9739 20.5321C56.0939 20.5321 57.0272 20.8028 57.7739 21.3441C58.5205 21.8855 59.0059 22.6321 59.2299 23.5841H57.5499C57.4005 23.0615 57.1065 22.6508 56.6679 22.3521C56.2292 22.0535 55.6645 21.9041 54.9739 21.9041C53.9472 21.9041 53.1399 22.2355 52.5519 22.8981C51.9639 23.5608 51.6699 24.4755 51.6699 25.6421C51.6699 26.8088 51.9592 27.7188 52.5379 28.3721C53.1165 29.0255 53.8865 29.3521 54.8479 29.3521C55.8185 29.3521 56.5465 29.0768 57.0319 28.5261C57.5265 27.9755 57.8159 27.2428 57.8999 26.3281H55.2399V25.1801H59.3979V30.5001H58.0399L57.9139 29.0581C57.5872 29.5715 57.1765 29.9681 56.6819 30.2481C56.1872 30.5281 55.5432 30.6681 54.7499 30.6681ZM64.391 30.6681C63.7096 30.6681 63.103 30.5188 62.571 30.2201C62.0483 29.9121 61.6376 29.4875 61.339 28.9461C61.0403 28.4048 60.891 27.7748 60.891 27.0561C60.891 26.3281 61.0356 25.6888 61.325 25.1381C61.6236 24.5875 62.0343 24.1581 62.557 23.8501C63.089 23.5421 63.705 23.3881 64.405 23.3881C65.0863 23.3881 65.679 23.5421 66.183 23.8501C66.687 24.1488 67.079 24.5501 67.359 25.0541C67.639 25.5581 67.779 26.1135 67.779 26.7201C67.779 26.8135 67.7743 26.9161 67.765 27.0281C67.765 27.1308 67.7603 27.2475 67.751 27.3781H62.347C62.3936 28.0501 62.613 28.5635 63.005 28.9181C63.4063 29.2635 63.8683 29.4361 64.391 29.4361C64.811 29.4361 65.161 29.3428 65.441 29.1561C65.7303 28.9601 65.945 28.6988 66.085 28.3721H67.569C67.3823 29.0255 67.009 29.5715 66.449 30.0101C65.8983 30.4488 65.2123 30.6681 64.391 30.6681ZM64.391 24.6061C63.8963 24.6061 63.4576 24.7555 63.075 25.0541C62.6923 25.3435 62.459 25.7821 62.375 26.3701H66.295C66.267 25.8288 66.0756 25.3995 65.721 25.0821C65.3663 24.7648 64.923 24.6061 64.391 24.6061ZM72.053 30.5001C71.3717 30.5001 70.8303 30.3368 70.429 30.0101C70.0277 29.6741 69.827 29.0815 69.827 28.2321V24.8021H68.637V23.5561H69.827L70.009 21.7921H71.311V23.5561H73.271V24.8021H71.311V28.2321C71.311 28.6148 71.3903 28.8808 71.549 29.0301C71.717 29.1701 72.0017 29.2401 72.403 29.2401H73.201V30.5001H72.053ZM81.5765 30.6681C80.9138 30.6681 80.3165 30.5188 79.7845 30.2201C79.2618 29.9121 78.8465 29.4875 78.5385 28.9461C78.2305 28.3955 78.0765 27.7561 78.0765 27.0281C78.0765 26.3001 78.2305 25.6655 78.5385 25.1241C78.8558 24.5735 79.2805 24.1488 79.8125 23.8501C80.3445 23.5421 80.9372 23.3881 81.5905 23.3881C82.2532 23.3881 82.8458 23.5421 83.3685 23.8501C83.9005 24.1488 84.3205 24.5735 84.6285 25.1241C84.9458 25.6655 85.1045 26.3001 85.1045 27.0281C85.1045 27.7561 84.9458 28.3955 84.6285 28.9461C84.3205 29.4875 83.9005 29.9121 83.3685 30.2201C82.8365 30.5188 82.2392 30.6681 81.5765 30.6681ZM81.5765 29.3941C81.9312 29.3941 82.2578 29.3055 82.5565 29.1281C82.8645 28.9508 83.1118 28.6895 83.2985 28.3441C83.4852 27.9895 83.5785 27.5508 83.5785 27.0281C83.5785 26.5055 83.4852 26.0715 83.2985 25.7261C83.1212 25.3715 82.8785 25.1055 82.5705 24.9281C82.2718 24.7508 81.9452 24.6621 81.5905 24.6621C81.2358 24.6621 80.9045 24.7508 80.5965 24.9281C80.2978 25.1055 80.0552 25.3715 79.8685 25.7261C79.6818 26.0715 79.5885 26.5055 79.5885 27.0281C79.5885 27.5508 79.6818 27.9895 79.8685 28.3441C80.0552 28.6895 80.2978 28.9508 80.5965 29.1281C80.8952 29.3055 81.2218 29.3941 81.5765 29.3941ZM86.7094 30.5001V23.5561H88.0254L88.1374 24.7741C88.352 24.3448 88.6647 24.0088 89.0754 23.7661C89.4954 23.5141 89.976 23.3881 90.5174 23.3881C91.3574 23.3881 92.0154 23.6495 92.4914 24.1721C92.9767 24.6948 93.2194 25.4741 93.2194 26.5101V30.5001H91.7494V26.6641C91.7494 25.3201 91.1987 24.6481 90.0974 24.6481C89.5467 24.6481 89.0894 24.8441 88.7254 25.2361C88.3707 25.6281 88.1934 26.1881 88.1934 26.9161V30.5001H86.7094ZM97.9205 30.5001L101.533 20.7001H103.157L106.741 30.5001H105.173L104.333 28.1061H100.329L99.4885 30.5001H97.9205ZM100.749 26.9301H103.913L102.331 22.4641L100.749 26.9301ZM108.051 30.5001V23.5561H109.367L109.479 24.7741C109.694 24.3448 110.006 24.0088 110.417 23.7661C110.837 23.5141 111.318 23.3881 111.859 23.3881C112.699 23.3881 113.357 23.6495 113.833 24.1721C114.318 24.6948 114.561 25.4741 114.561 26.5101V30.5001H113.091V26.6641C113.091 25.3201 112.54 24.6481 111.439 24.6481C110.888 24.6481 110.431 24.8441 110.067 25.2361C109.712 25.6281 109.535 26.1881 109.535 26.9161V30.5001H108.051ZM119.473 30.6681C118.801 30.6681 118.208 30.5095 117.695 30.1921C117.182 29.8748 116.78 29.4408 116.491 28.8901C116.202 28.3395 116.057 27.7141 116.057 27.0141C116.057 26.3141 116.202 25.6935 116.491 25.1521C116.78 24.6015 117.182 24.1721 117.695 23.8641C118.218 23.5468 118.815 23.3881 119.487 23.3881C120.038 23.3881 120.518 23.4955 120.929 23.7101C121.349 23.9248 121.676 24.2281 121.909 24.6201V20.4201H123.393V30.5001H122.063L121.909 29.4221C121.685 29.7488 121.377 30.0381 120.985 30.2901C120.593 30.5421 120.089 30.6681 119.473 30.6681ZM119.739 29.3801C120.374 29.3801 120.892 29.1608 121.293 28.7221C121.704 28.2835 121.909 27.7188 121.909 27.0281C121.909 26.3281 121.704 25.7635 121.293 25.3341C120.892 24.8955 120.374 24.6761 119.739 24.6761C119.104 24.6761 118.582 24.8955 118.171 25.3341C117.76 25.7635 117.555 26.3281 117.555 27.0281C117.555 27.4855 117.648 27.8915 117.835 28.2461C118.022 28.6008 118.278 28.8808 118.605 29.0861C118.941 29.2821 119.319 29.3801 119.739 29.3801ZM125.264 30.5001V23.5561H126.594L126.72 24.8721C126.963 24.4148 127.299 24.0555 127.728 23.7941C128.167 23.5235 128.694 23.3881 129.31 23.3881V24.9421H128.904C128.493 24.9421 128.125 25.0121 127.798 25.1521C127.481 25.2828 127.224 25.5115 127.028 25.8381C126.841 26.1555 126.748 26.5988 126.748 27.1681V30.5001H125.264ZM133.639 30.6681C132.976 30.6681 132.379 30.5188 131.847 30.2201C131.324 29.9121 130.909 29.4875 130.601 28.9461C130.293 28.3955 130.139 27.7561 130.139 27.0281C130.139 26.3001 130.293 25.6655 130.601 25.1241C130.918 24.5735 131.343 24.1488 131.875 23.8501C132.407 23.5421 133 23.3881 133.653 23.3881C134.316 23.3881 134.908 23.5421 135.431 23.8501C135.963 24.1488 136.383 24.5735 136.691 25.1241C137.008 25.6655 137.167 26.3001 137.167 27.0281C137.167 27.7561 137.008 28.3955 136.691 28.9461C136.383 29.4875 135.963 29.9121 135.431 30.2201C134.899 30.5188 134.302 30.6681 133.639 30.6681ZM133.639 29.3941C133.994 29.3941 134.32 29.3055 134.619 29.1281C134.927 28.9508 135.174 28.6895 135.361 28.3441C135.548 27.9895 135.641 27.5508 135.641 27.0281C135.641 26.5055 135.548 26.0715 135.361 25.7261C135.184 25.3715 134.941 25.1055 134.633 24.9281C134.334 24.7508 134.008 24.6621 133.653 24.6621C133.298 24.6621 132.967 24.7508 132.659 24.9281C132.36 25.1055 132.118 25.3715 131.931 25.7261C131.744 26.0715 131.651 26.5055 131.651 27.0281C131.651 27.5508 131.744 27.9895 131.931 28.3441C132.118 28.6895 132.36 28.9508 132.659 29.1281C132.958 29.3055 133.284 29.3941 133.639 29.3941ZM139.612 22.2401C139.332 22.2401 139.099 22.1561 138.912 21.9881C138.735 21.8108 138.646 21.5915 138.646 21.3301C138.646 21.0688 138.735 20.8541 138.912 20.6861C139.099 20.5088 139.332 20.4201 139.612 20.4201C139.892 20.4201 140.121 20.5088 140.298 20.6861C140.485 20.8541 140.578 21.0688 140.578 21.3301C140.578 21.5915 140.485 21.8108 140.298 21.9881C140.121 22.1561 139.892 22.2401 139.612 22.2401ZM138.87 30.5001V23.5561H140.354V30.5001H138.87ZM145.477 30.6681C144.805 30.6681 144.212 30.5095 143.699 30.1921C143.186 29.8748 142.784 29.4408 142.495 28.8901C142.206 28.3395 142.061 27.7141 142.061 27.0141C142.061 26.3141 142.206 25.6935 142.495 25.1521C142.784 24.6015 143.186 24.1721 143.699 23.8641C144.222 23.5468 144.819 23.3881 145.491 23.3881C146.042 23.3881 146.522 23.4955 146.933 23.7101C147.353 23.9248 147.68 24.2281 147.913 24.6201V20.4201H149.397V30.5001H148.067L147.913 29.4221C147.689 29.7488 147.381 30.0381 146.989 30.2901C146.597 30.5421 146.093 30.6681 145.477 30.6681ZM145.743 29.3801C146.378 29.3801 146.896 29.1608 147.297 28.7221C147.708 28.2835 147.913 27.7188 147.913 27.0281C147.913 26.3281 147.708 25.7635 147.297 25.3341C146.896 24.8955 146.378 24.6761 145.743 24.6761C145.108 24.6761 144.586 24.8955 144.175 25.3341C143.764 25.7635 143.559 26.3281 143.559 27.0281C143.559 27.4855 143.652 27.8915 143.839 28.2461C144.026 28.6008 144.282 28.8808 144.609 29.0861C144.945 29.2821 145.323 29.3801 145.743 29.3801Z" fill="#0C1825"/>
<rect x="0.5" y="0.5" width="169.5" height="50.0003" rx="9.5" stroke="#0C1825" stroke-opacity="0.5"/>
</svg>
