<svg width="50" height="50" viewBox="0 0 50 50" fill="none" xmlns="http://www.w3.org/2000/svg">
<path d="M0 15C0 6.71573 6.71573 0 15 0H35C43.2843 0 50 6.71573 50 15V35C50 43.2843 43.2843 50 35 50H0V15Z" fill="#FF5858" fill-opacity="0.15"/>
<path d="M20.2 31V34.6H29.8V26.2H20.2V31ZM17.8 28.6V26.2H15.4V23.8H17.8V21.4H15.4V28.6H17.8ZM17.8 31H15.4V32.2C15.4 32.8365 15.6529 33.447 16.1029 33.8971C16.553 34.3471 17.1635 34.6 17.8 34.6V31ZM34.6 28.6V21.4H32.2V23.8H34.6V26.2H32.2V28.6H34.6ZM34.6 31H32.2V34.6C32.8365 34.6 33.447 34.3471 33.8971 33.8971C34.3471 33.447 34.6 32.8365 34.6 32.2V31ZM29.8 21.4V15.4H20.2V23.8H29.8V21.4ZM34.6 19V17.8C34.6 17.1635 34.3471 16.553 33.8971 16.1029C33.447 15.6529 32.8365 15.4 32.2 15.4V19H34.6ZM17.8 19V15.4C17.1635 15.4 16.553 15.6529 16.1029 16.1029C15.6529 16.553 15.4 17.1635 15.4 17.8V19H17.8ZM17.8 13H32.2C33.473 13 34.6939 13.5057 35.5941 14.4059C36.4943 15.3061 37 16.527 37 17.8V32.2C37 33.473 36.4943 34.6939 35.5941 35.5941C34.6939 36.4943 33.473 37 32.2 37H17.8C16.527 37 15.3061 36.4943 14.4059 35.5941C13.5057 34.6939 13 33.473 13 32.2V17.8C13 16.527 13.5057 15.3061 14.4059 14.4059C15.3061 13.5057 16.527 13 17.8 13V13Z" fill="#FF5858"/>
</svg>
