<svg width="50" height="50" viewBox="0 0 50 50" fill="none" xmlns="http://www.w3.org/2000/svg">
<path d="M0 15C0 6.71573 6.71573 0 15 0H35C43.2843 0 50 6.71573 50 15V35C50 43.2843 43.2843 50 35 50H0V15Z" fill="#0051EE" fill-opacity="0.15"/>
<path d="M26.6137 37.5013L28.9632 35.8889C31.9671 33.8256 34.2922 30.9471 35.6534 27.6063C37.0147 24.2656 37.353 20.6077 36.6268 17.0811C36.5909 16.9073 36.5148 16.7439 36.4043 16.6036C36.2938 16.4634 36.1518 16.3499 35.9895 16.2721L24.9999 11L14.0118 16.2721C13.8491 16.3498 13.7069 16.4631 13.5961 16.6034C13.4854 16.7437 13.409 16.9072 13.373 17.0811C12.647 20.6078 12.9855 24.2658 14.347 27.6066C15.7085 30.9473 18.0339 33.8257 21.038 35.8889L23.3876 37.5013C23.8604 37.8259 24.4235 38 25.0006 38C25.5777 38 26.1408 37.8259 26.6137 37.5013V37.5013Z" stroke="#376FFF" stroke-width="2" stroke-linecap="round" stroke-linejoin="round"/>
</svg>
