<svg width="102" height="25" viewBox="0 0 102 25" fill="none" xmlns="http://www.w3.org/2000/svg">
<path d="M21.3333 1H2.66667C1.2 1 0 2.2 0 3.66667V22.3333C0 23.8013 1.2 25 2.66667 25H12V15.6667H9.33333V12.3667H12V9.63333C12 6.748 13.616 4.72133 17.0213 4.72133L19.4253 4.724V8.19733H17.8293C16.504 8.19733 16 9.192 16 10.1147V12.368H19.424L18.6667 15.6667H16V25H21.3333C22.8 25 24 23.8013 24 22.3333V3.66667C24 2.2 22.8 1 21.3333 1Z" fill="black"/>
<path d="M60.4286 1H41.5714C40.1518 1 39 2.15179 39 3.57143V22.4286C39 23.8482 40.1518 25 41.5714 25H60.4286C61.8482 25 63 23.8482 63 22.4286V3.57143C63 2.15179 61.8482 1 60.4286 1ZM57.8089 9.50714C57.8196 9.65714 57.8196 9.8125 57.8196 9.9625C57.8196 14.6071 54.2839 19.9589 47.8232 19.9589C45.8304 19.9589 43.9821 19.3804 42.4286 18.3839C42.7125 18.4161 42.9857 18.4268 43.275 18.4268C44.9196 18.4268 46.4304 17.8696 47.6357 16.9268C46.0929 16.8946 44.7964 15.8821 44.3518 14.4893C44.8929 14.5696 45.3804 14.5696 45.9375 14.425C44.3304 14.0982 43.125 12.6839 43.125 10.975V10.9321C43.5911 11.1946 44.1375 11.3554 44.7107 11.3768C44.2288 11.0562 43.8337 10.6214 43.5608 10.111C43.2878 9.60059 43.1455 9.03057 43.1464 8.45179C43.1464 7.79821 43.3179 7.19821 43.6232 6.67857C45.3536 8.81071 47.9518 10.2036 50.8661 10.3536C50.3679 7.96964 52.1518 6.03571 54.2946 6.03571C55.3071 6.03571 56.2179 6.45893 56.8607 7.14464C57.6536 6.99464 58.4143 6.7 59.0893 6.29821C58.8268 7.1125 58.275 7.79821 57.5464 8.23214C58.2536 8.15714 58.9393 7.95893 59.5714 7.68571C59.0946 8.3875 58.4946 9.00893 57.8089 9.50714Z" fill="black"/>
<path d="M90 9.52344C89.4349 9.52366 88.8825 9.69842 88.4128 10.0256C87.943 10.3528 87.5769 10.8178 87.3608 11.3617C87.1447 11.9056 87.0882 12.5041 87.1986 13.0814C87.309 13.6587 87.5812 14.189 87.9809 14.6051C88.3806 15.0213 88.8897 15.3047 89.444 15.4195C89.9983 15.5342 90.5728 15.4752 91.0948 15.2499C91.6169 15.0246 92.0631 14.643 92.3771 14.1536C92.691 13.6641 92.8586 13.0887 92.8586 12.5C92.858 11.7106 92.5566 10.9536 92.0206 10.3955C91.4846 9.83739 90.7579 9.52373 90 9.52344ZM96.6809 7.23549C96.5354 6.85147 96.3158 6.50269 96.0355 6.21077C95.7553 5.91886 95.4204 5.69004 95.0518 5.5385C93.9268 5.07589 91.2482 5.17969 90 5.17969C88.7518 5.17969 86.0759 5.07199 84.9477 5.5385C84.579 5.69004 84.2442 5.91886 83.9639 6.21077C83.6837 6.50269 83.464 6.85147 83.3186 7.23549C82.875 8.40737 82.9741 11.2003 82.9741 12.4994C82.9741 13.7985 82.875 16.5882 83.3207 17.764C83.4662 18.148 83.6859 18.4968 83.9661 18.7887C84.2463 19.0806 84.5812 19.3094 84.9498 19.4609C86.0748 19.9235 88.7534 19.8198 90.0021 19.8198C91.2509 19.8198 93.9257 19.9275 95.0539 19.4609C95.4226 19.3094 95.7574 19.0806 96.0377 18.7887C96.3179 18.4968 96.5376 18.148 96.683 17.764C97.1304 16.5921 97.0275 13.7991 97.0275 12.5C97.0275 11.2009 97.1304 8.41183 96.683 7.23605L96.6809 7.23549ZM90 17.0759C89.1312 17.0759 88.2819 16.8075 87.5595 16.3047C86.8371 15.8019 86.274 15.0873 85.9415 14.2511C85.609 13.415 85.5221 12.4949 85.6916 11.6073C85.861 10.7197 86.2794 9.90431 86.8938 9.26435C87.5081 8.6244 88.2909 8.18859 89.143 8.01203C89.9951 7.83547 90.8784 7.92609 91.6811 8.27243C92.4838 8.61876 93.1698 9.20527 93.6525 9.95777C94.1352 10.7103 94.3929 11.595 94.3929 12.5C94.3936 13.1011 94.2804 13.6965 94.0599 14.252C93.8394 14.8075 93.5158 15.3122 93.1078 15.7373C92.6997 16.1623 92.2152 16.4994 91.6819 16.7291C91.1486 16.9588 90.5771 17.0766 90 17.0759ZM94.5739 8.80022C94.3711 8.80033 94.1728 8.73779 94.0041 8.62049C93.8354 8.50319 93.7039 8.33642 93.6262 8.14127C93.5486 7.94611 93.5282 7.73134 93.5677 7.52411C93.6072 7.31689 93.7048 7.12652 93.8482 6.97709C93.9915 6.82766 94.1742 6.72588 94.3732 6.68463C94.5721 6.64337 94.7783 6.66449 94.9657 6.74531C95.153 6.82614 95.3132 6.96303 95.4259 7.13869C95.5386 7.31435 95.5988 7.52087 95.5988 7.73214C95.5993 7.87244 95.5733 8.01147 95.5221 8.14127C95.471 8.27106 95.3958 8.38906 95.3008 8.4885C95.2058 8.58794 95.0928 8.66686 94.9685 8.72074C94.8441 8.77461 94.7108 8.80238 94.5761 8.80246L94.5739 8.80022ZM99.4286 0H80.5714C79.8894 0 79.2354 0.282206 78.7532 0.784535C78.2709 1.28687 78 1.96817 78 2.67857V22.3214C78 23.0318 78.2709 23.7131 78.7532 24.2155C79.2354 24.7178 79.8894 25 80.5714 25H99.4286C100.111 25 100.765 24.7178 101.247 24.2155C101.729 23.7131 102 23.0318 102 22.3214V2.67857C102 1.96817 101.729 1.28687 101.247 0.784535C100.765 0.282206 100.111 0 99.4286 0ZM98.5114 16.183C98.4423 17.6133 98.1289 18.8806 97.1266 19.9219C96.1243 20.9632 94.9088 21.2963 93.5373 21.3644C92.1225 21.4475 87.8807 21.4475 86.4659 21.3644C85.0929 21.2924 83.8805 20.9654 82.8766 19.9219C81.8727 18.8783 81.5571 17.6105 81.4918 16.183C81.412 14.7087 81.412 10.2896 81.4918 8.81696C81.5609 7.38672 81.8705 6.11942 82.8766 5.07812C83.8827 4.03683 85.0982 3.70759 86.4659 3.63951C87.8807 3.55636 92.1225 3.55636 93.5373 3.63951C94.9104 3.7115 96.1264 4.0385 97.1266 5.08203C98.1268 6.12556 98.4461 7.39341 98.5114 8.82366C98.5913 10.2924 98.5913 14.7076 98.5114 16.183Z" fill="black"/>
</svg>
